<svg viewBox="0 0 48 48" xmlns="http://www.w3.org/2000/svg" fill="currentColor">
<ellipse cx="37.00" cy="24.00" rx="5" ry="2.6" transform="rotate(0.0 37.00 24.00)"/>
<ellipse cx="35.26" cy="30.50" rx="5" ry="2.6" transform="rotate(30.0 35.26 30.50)"/>
<ellipse cx="30.50" cy="35.26" rx="5" ry="2.6" transform="rotate(60.0 30.50 35.26)"/>
<ellipse cx="24.00" cy="37.00" rx="5" ry="2.6" transform="rotate(90.0 24.00 37.00)"/>
<ellipse cx="17.50" cy="35.26" rx="5" ry="2.6" transform="rotate(120.0 17.50 35.26)"/>
<ellipse cx="12.74" cy="30.50" rx="5" ry="2.6" transform="rotate(150.0 12.74 30.50)"/>
<ellipse cx="11.00" cy="24.00" rx="5" ry="2.6" transform="rotate(180.0 11.00 24.00)"/>
<ellipse cx="12.74" cy="17.50" rx="5" ry="2.6" transform="rotate(210.0 12.74 17.50)"/>
<ellipse cx="17.50" cy="12.74" rx="5" ry="2.6" transform="rotate(240.0 17.50 12.74)"/>
<ellipse cx="24.00" cy="11.00" rx="5" ry="2.6" transform="rotate(270.0 24.00 11.00)"/>
<ellipse cx="30.50" cy="12.74" rx="5" ry="2.6" transform="rotate(300.0 30.50 12.74)"/>
<ellipse cx="35.26" cy="17.50" rx="5" ry="2.6" transform="rotate(330.0 35.26 17.50)"/>
<circle cx="24" cy="24" r="8"/>
<circle cx="24" cy="24" r="6" fill="#000" opacity="0.28"/>
</svg>